<?xml version="1.0" encoding="UTF-8"?><svg id="_層_2" xmlns="http://www.w3.org/2000/svg" xmlns:xlink="http://www.w3.org/1999/xlink" viewBox="0 0 69.88 65.29"><defs><style>.cls-1{fill:#fff;}.cls-2{fill:url(#_命名漸層_8);}.cls-3{fill:url(#_命名漸層_12);}</style><linearGradient id="_命名漸層_8" x1="6.99" y1="19.59" x2="63.08" y2="19.59" gradientTransform="matrix(1, 0, 0, 1, 0, 0)" gradientUnits="userSpaceOnUse"><stop offset="0" stop-color="#2f2f2f"/><stop offset="1" stop-color="#000"/></linearGradient><linearGradient id="_命名漸層_12" x1="13.8" y1="45.31" x2="69.88" y2="45.31" gradientTransform="matrix(1, 0, 0, 1, 0, 0)" gradientUnits="userSpaceOnUse"><stop offset="0" stop-color="#998db7"/><stop offset="1" stop-color="#3e3c84"/></linearGradient></defs><g id="_層_1-2"><polygon class="cls-1" points="35 0 69.88 21 54.53 30.11 35 18.88 31.41 21 69.88 44.29 35.03 65.29 0 44.12 15 34.79 34.94 46.76 39.53 44.12 0 20.29 35 0"/><g><path class="cls-2" d="M39.03,30.11l-16.04-9.36,12.02-7.02,20.05,11.74,4.01-2.34h0l4.01-2.34L37.93,6.11l-2.95-1.72L6.99,20.73l24.02,14.06,4.01-2.34"/><path class="cls-3" d="M31,34.79l16.04,9.36-12.02,7.02-20.05-11.76-4.01,2.34h0l-4.01,2.34,24.95,14.58,3.14,1.83,27.99-16.34-24.02-14.06"/></g></g></svg>