<?xml version="1.0" encoding="UTF-8"?><svg id="_層_2" xmlns="http://www.w3.org/2000/svg" xmlns:xlink="http://www.w3.org/1999/xlink" viewBox="0 0 92.57 115.49"><defs><style>.cls-1{fill:#fff;}.cls-2{fill:none;stroke:#231815;stroke-miterlimit:10;stroke-width:.5px;}.cls-3{font-family:MGentleHK-Light-B5pc-H, MGentleHK;font-size:5px;letter-spacing:.08em;}.cls-3,.cls-4{fill:#231815;}.cls-4{font-family:GenJyuuGothic-P-Normal, 'Gen Jyuu Gothic P';font-size:11px;letter-spacing:.8em;}.cls-5{fill:url(#_命名漸層_8);}.cls-6{fill:url(#_命名漸層_12);}</style><linearGradient id="_命名漸層_8" x1="19.26" y1="33.62" x2="75.35" y2="33.62" gradientTransform="matrix(1, 0, 0, 1, 0, 0)" gradientUnits="userSpaceOnUse"><stop offset="0" stop-color="#2f2f2f"/><stop offset="1" stop-color="#000"/></linearGradient><linearGradient id="_命名漸層_12" x1="26.07" y1="59.34" x2="82.15" y2="59.34" gradientTransform="matrix(1, 0, 0, 1, 0, 0)" gradientUnits="userSpaceOnUse"><stop offset="0" stop-color="#998db7"/><stop offset="1" stop-color="#3e3c84"/></linearGradient></defs><g id="_層_1-2"><polygon class="cls-1" points="86.37 4.96 86.37 .25 .25 .25 .25 110.53 6.2 110.53 6.2 115.24 92.32 115.24 92.32 4.96 86.37 4.96"/><g><g><path class="cls-5" d="M51.3,44.14l-16.04-9.36,12.02-7.02,20.05,11.74,4.01-2.34h0l4.01-2.34-25.15-14.68-2.95-1.72-27.99,16.34,24.02,14.06,4.01-2.34"/><path class="cls-6" d="M43.27,48.82l16.04,9.36-12.02,7.02-20.05-11.76-4.01,2.34h0l-4.01,2.34,24.95,14.58,3.14,1.83,27.99-16.34-24.02-14.06"/></g><g><text class="cls-4" transform="translate(22.27 89.85)"><tspan x="0" y="0">周尚駐</tspan></text><text class="cls-3" transform="translate(22.27 99.79)"><tspan x="0" y="0">CHOU SHANG CHU</tspan></text></g><g><rect class="cls-2" x="6.2" y="4.96" width="86.12" height="110.28"/><rect class="cls-2" x=".25" y=".25" width="86.12" height="110.28"/></g></g></g></svg>